<svg xmlns="http://www.w3.org/2000/svg" viewBox="0 0 1200 800">
  <defs>
    <linearGradient id="sky" x1="0" x2="1" y1="0" y2="1">
      <stop offset="0%" stop-color="#f6d7a8"/>
      <stop offset="55%" stop-color="#d98963"/>
      <stop offset="100%" stop-color="#6b8f71"/>
    </linearGradient>
  </defs>
  <rect width="1200" height="800" fill="url(#sky)"/>
  <circle cx="926" cy="164" r="74" fill="#fff2cf" opacity="0.85"/>
  <path d="M0 598C116 547 224 521 324 521c170 0 242 111 387 111 108 0 209-52 489-177v345H0Z" fill="#496a57" opacity="0.88"/>
  <path d="M0 690c168-70 289-105 365-105 156 0 228 85 353 85 89 0 183-31 482-123v253H0Z" fill="#2f473d"/>
  <path d="M227 489c57-108 136-163 238-163 85 0 164 41 238 123-67 25-139 37-216 37-95 0-182 1-260 3Z" fill="#f4e6c8" opacity="0.42"/>
</svg>
